# xmcd
#
# Track frame offsets: 
#        150
#        14444
#        29357
#        45672
#        63229
#        75199
#        97558
#        111881
#        125713
#        146645
#        164029
#        180049
#        199344
#        216534
#
# Disc length: 3166 seconds
#
# Revision: 0
# Processed by: cddbd v1.5.2PL0 Copyright (c) Steve Scherf et al.
# Submitted via: ExactAudioCopy v1.3
#
DISCID=bb0c5c0e
DTITLE=Various Artist - 盆踊りの音楽 ベスト king super twin Disc1
DYEAR=2012
DGENRE=Country
TTITLE0=東京音頭
TTITLE1=大東京音頭
TTITLE2=北海盆唄 (北海よされ節入り) -北海道民謡-
TTITLE3=真室川音頭 (追分入り) -山形県民謡-
TTITLE4=会津磐梯山 -福島県民謡-
TTITLE5=越中おわら節 -富山県民謡-
TTITLE6=秋田音頭 -秋田県民謡-
TTITLE7=ソーラン節 -北海道民謡-
TTITLE8=八木節 -群馬県民謡-
TTITLE9=相馬盆唄 -福島県民謡-
TTITLE10=佐渡おけさ -新潟県民謡-
TTITLE11=秩父音頭 -埼玉県民謡-
TTITLE12=ズンパ音頭
TTITLE13=鹿児島おはら節 -鹿児島県民謡-
EXTD=
EXTT0=
EXTT1=
EXTT2=
EXTT3=
EXTT4=
EXTT5=
EXTT6=
EXTT7=
EXTT8=
EXTT9=
EXTT10=
EXTT11=
EXTT12=
EXTT13=
PLAYORDER=
